<svg width="56" height="57" viewBox="0 0 56 57" fill="none" xmlns="http://www.w3.org/2000/svg">
<g clip-path="url(#clip0_8_109)">
<path d="M13.2733 1.08553C10.3631 1.54988 7.45296 3.31445 5.29599 5.93807C1.7353 10.303 -0.17059 16.6531 0.0120102 23.5489C0.19461 29.9918 1.94072 35.6106 5.23893 40.3819C6.22041 41.7982 8.55997 44.1664 9.80393 45.0022C14.6314 48.2527 19.767 48.1715 24.1951 44.7933C28.0753 41.8214 30.86 36.1678 31.7273 29.5275C31.9099 28.0648 31.9213 23.4096 31.7273 21.8656C31.0426 16.2933 29.1367 11.255 26.2379 7.41241C24.0239 4.46373 20.7942 2.14194 17.8383 1.36414C16.5601 1.02748 14.4602 0.899783 13.2733 1.08553ZM13.125 4.44052C14.2434 4.9397 15.202 6.15864 15.7613 7.81872C16.1949 9.0841 16.3091 10.9299 16.0237 12.1489C15.67 13.658 14.7227 15.1092 13.7527 15.6199C11.2876 16.8969 8.49149 14.1456 8.22901 10.2102C8.06923 7.6562 9.14201 5.18349 10.7398 4.45213C11.3789 4.15029 12.463 4.15029 13.125 4.44052ZM23.2022 8.97962C23.9782 9.35111 24.9369 10.3843 25.4505 11.3595C26.9911 14.3546 26.683 18.4409 24.7657 20.4493C23.944 21.3083 23.3848 21.5637 22.3463 21.5637C21.1936 21.5753 20.429 21.2039 19.5502 20.2055C18.2948 18.766 17.6671 16.955 17.6671 14.7261C17.6671 11.9515 18.7285 9.74581 20.4632 8.89836C21.2164 8.52687 22.3577 8.5617 23.2022 8.97962ZM6.56278 14.401C7.13341 14.668 7.94369 15.6432 8.36596 16.5603C9.57568 19.1723 9.27896 22.7595 7.71544 24.4892C6.89374 25.3947 6.09487 25.5688 5.05633 25.0696C4.383 24.7562 4.13192 24.4892 3.57271 23.5489C2.07767 21.0181 2.20321 16.9666 3.82378 15.1324C4.73678 14.0992 5.50142 13.9018 6.56278 14.401ZM14.0722 18.9633C14.5401 19.4857 14.3347 20.9368 13.7869 20.9368C13.2962 20.9368 12.9766 19.8572 13.2619 19.1607C13.4559 18.6731 13.7527 18.6034 14.0722 18.9633ZM17.1764 20.8904C17.4047 21.2503 17.4275 22.1442 17.2221 22.5273C16.9025 23.1309 16.2976 22.6666 16.2063 21.7495C16.115 20.7511 16.7313 20.2055 17.1764 20.8904ZM11.9495 22.0513C12.212 22.388 12.269 23.1426 12.075 23.665C11.9267 24.0713 11.4017 24.0364 11.1963 23.6069C10.8767 22.9684 11.1164 21.7495 11.5615 21.7495C11.6413 21.7495 11.8239 21.8888 11.9495 22.0513ZM14.9281 22.446C15.4759 22.8407 15.7841 23.6417 15.7841 24.7098C15.7841 25.4876 15.7384 25.7197 15.4988 26.1609C15.339 26.4511 15.0651 26.7529 14.8711 26.8458C14.5744 26.9967 14.4945 26.9851 14.1407 26.7878C13.0223 26.1725 12.7369 23.5256 13.6956 22.5621C14.095 22.1558 14.4716 22.121 14.9281 22.446ZM26.1352 24.3267C27.4476 25.0348 28.4291 26.4627 28.9883 28.4246C29.3193 29.632 29.3421 31.8609 29.034 32.9986C28.6003 34.6122 27.6302 35.9937 26.5461 36.5393C25.3135 37.1662 23.75 36.8527 22.6544 35.7499C19.2763 32.3601 19.9382 25.267 23.75 24.0016C24.4462 23.7694 25.3363 23.8855 26.1352 24.3267ZM18.1921 25.534C18.5459 26.068 18.1921 27.2057 17.6671 27.2057C17.3362 27.2057 17.0623 26.7762 17.0052 26.1725C16.9596 25.6733 16.9938 25.5572 17.2563 25.2902C17.496 25.0464 17.5873 25.0116 17.7813 25.1161C17.9068 25.1857 18.0894 25.3715 18.1921 25.534ZM12.5087 26.1725C12.8054 26.4859 12.8967 27.0199 12.7598 27.5656C12.6228 28.088 12.4973 28.1808 12.1321 28.088C11.6528 27.9603 11.4359 26.7181 11.8011 26.1841C12.018 25.859 12.2348 25.859 12.5087 26.1725ZM8.89093 27.554C11.162 28.7381 12.075 33.1727 10.637 36.0633C9.62133 38.0833 7.68121 38.4083 6.28888 36.7947C5.30741 35.657 4.77102 34.0782 4.77102 32.3136C4.77102 30.4098 5.15904 29.156 6.06063 28.1808C6.97363 27.1941 7.81816 27.0083 8.89093 27.554ZM15.4874 28.2041C15.8982 28.7265 15.7384 30.1079 15.2819 30.1079C14.8483 30.0963 14.5858 29.6436 14.5858 28.9238C14.5858 28.3898 14.8368 27.9022 15.0993 27.9022C15.1792 27.9022 15.3618 28.0415 15.4874 28.2041ZM18.1008 33.1727C19.1393 33.7183 20.1094 35.0301 20.6001 36.5393C20.8626 37.3519 20.9083 37.677 20.9083 38.9888C20.9197 40.6721 20.7257 41.5079 20.0523 42.5992C19.3105 43.8065 18.6372 44.2709 17.4845 44.3637C16.583 44.4334 15.7841 44.0851 15.008 43.2725C13.8097 42.0419 13.182 40.289 13.1934 38.2342C13.2049 36.8411 13.3989 35.9588 13.9238 34.9605C14.3347 34.1827 15.2819 33.2307 15.8526 33.0334C16.3775 32.8593 17.6443 32.9289 18.1008 33.1727Z" fill="#DA38F3"/>
<path d="M26.489 4.46374C30.7002 10.0476 33.2566 15.945 33.987 21.7495C34.0555 22.2951 34.2609 23.5373 34.4435 24.5008C34.6376 25.476 34.7859 26.4627 34.7859 26.7065C34.7859 27.1128 34.8316 27.1709 35.2881 27.4147C35.562 27.5656 36.1554 27.9951 36.6233 28.3666C37.0798 28.7381 37.4793 29.0283 37.4907 29.0167C37.639 28.8774 37.7303 25.1973 37.639 23.5837C37.3766 19.2303 36.5092 15.7941 34.8316 12.4623C33.4507 9.74582 31.4991 7.35437 29.228 5.62463C28.3036 4.91649 26.6032 3.87168 25.8499 3.53502C25.7929 3.5118 26.0896 3.92972 26.489 4.46374Z" fill="#DA38F3"/>
<path d="M70.2217 19.1955L68.738 19.2768L66.912 20.2055C63.2372 22.0862 58.4554 24.8259 54.8376 27.1244L53.3312 28.0764L52.9089 28.9471C52.2926 30.2124 50.8318 33.8112 50.0558 36.0053C49.3824 37.9092 48.8118 39.1862 48.0472 40.498C47.8303 40.8811 47.6249 41.2177 47.6135 41.2409C47.5907 41.2642 47.2027 41.1945 46.7462 41.09C44.8859 40.6721 43.5963 39.4764 40.9486 35.7499C38.746 32.6619 36.1554 29.6436 34.4093 28.1693C33.8615 27.7049 33.3022 27.3218 33.1881 27.3218C33.0626 27.3218 32.9599 27.3334 32.9599 27.3566C32.9599 27.3682 33.0283 27.7281 33.1196 28.1576C33.2908 29.0051 33.6332 29.5739 34.569 30.6187L35.1511 31.2688L34.7402 31.443C34.5234 31.5359 34.2837 31.6171 34.2267 31.6171C34.1582 31.6171 33.8957 31.6984 33.6446 31.8029C33.1425 32.0118 33.1425 32.035 33.7359 32.7084L34.1125 33.1495L35.1054 32.9057L36.0983 32.6619L36.5434 33.1611C37.0227 33.6951 37.6846 34.6354 37.6162 34.6935C37.6047 34.7051 36.9999 34.9837 36.2809 35.2855L34.9799 35.8428L34.6832 35.4597C33.6903 34.1479 33.405 33.846 32.9028 33.5674C32.1382 33.1379 31.9327 33.1495 31.9327 33.5906C31.9327 34.38 32.4235 35.9589 32.8457 36.5509C33.6446 37.6538 34.8658 39.5809 35.813 41.1945C37.2624 43.6904 38.1982 44.7817 39.7503 45.8381C40.9258 46.6275 41.8958 46.9758 43.0713 47.0338C45.1941 47.1383 46.575 46.3489 47.9445 44.2361C48.2754 43.7253 48.4466 43.586 48.8461 43.4699C50.5351 42.9707 53.2627 41.2642 54.6436 39.8595C56.5723 37.8976 57.5994 35.9124 59.6194 30.224C60.1558 28.7265 60.6237 27.4611 60.6466 27.4147C60.7265 27.287 62.5753 27.9835 63.9105 28.6568C67.3229 30.3982 68.932 31.7796 74.2046 37.4796C75.7681 39.1746 76.7838 40.4167 78.5528 42.8198C82.4901 48.1831 84.8296 51.5961 88.3675 57.1568L88.824 57.8766L92.0195 57.865C93.777 57.8534 95.3862 57.8069 95.5916 57.7605L95.9682 57.6792L95.1465 56.2862C93.4803 53.4652 90.7071 49.3092 88.5615 46.4185C88.1735 45.9077 87.8996 45.455 87.9453 45.4202C88.0594 45.3041 101.96 38.8147 102.085 38.8147C102.245 38.8147 103.774 40.4515 105.555 42.5295C106.456 43.586 108.602 46.0587 110.337 48.0322C112.06 50.0057 113.589 51.7587 113.737 51.9212L114 52.223L113.932 47.5214L113.852 42.8198L112.87 41.7982C112.322 41.2293 110.93 39.8943 109.766 38.8147C99.5518 29.3766 90.262 23.0265 83.0493 20.5538C81.0407 19.8688 78.1077 19.3813 75.1747 19.2536C72.0248 19.1259 71.671 19.1143 70.2217 19.1955ZM73.6454 21.053C75.2203 21.2039 77.2974 21.6334 78.781 22.1094L79.9223 22.4693L74.5128 25.2206L69.1032 27.9835L67.5625 27.1941C66.7066 26.753 65.3485 26.1841 64.5268 25.9171C63.7051 25.6385 62.9975 25.3831 62.9405 25.3483C62.8948 25.3135 64.3899 24.3847 66.2501 23.2935C69.7309 21.2619 69.9706 21.1574 71.42 21.0181C72.2074 20.9369 72.4129 20.9369 73.6454 21.053ZM85.4687 25.4876C88.4246 27.4843 90.787 29.2025 93.0809 31.0135C95.2378 32.7316 97.897 34.9721 97.897 35.0766C97.897 35.1346 94.9069 36.5625 91.2549 38.2691L84.6014 41.357L83.8025 40.4631C82.4102 38.8959 79.1691 35.5874 77.868 34.4149C76.2475 32.9521 74.5584 31.5939 72.9949 30.491L71.7395 29.6088L77.3202 26.7297C80.3788 25.1509 82.9238 23.8507 82.958 23.8507C82.9922 23.8391 84.1221 24.5821 85.4687 25.4876ZM89.4289 25.3599C89.9082 25.6965 90.3533 25.9984 90.3989 26.0448C90.456 26.1029 90.3076 26.2654 90.068 26.4279L89.6457 26.7297L88.63 26.0216C88.0822 25.6385 87.6257 25.2902 87.6257 25.2438C87.6257 25.1974 88.2306 24.8723 88.5159 24.7794C88.5387 24.7678 88.9496 25.0348 89.4289 25.3599ZM58.4668 27.6352C58.4211 27.7513 58.1701 28.4711 57.8962 29.2373C57.6223 30.0035 57.2685 30.967 57.1087 31.3849L56.8006 32.1395L54.9746 33.1031C53.9589 33.6371 53.1143 34.0434 53.0801 34.0086C53.0116 33.9389 53.6507 32.4878 54.5409 30.6768C55.2713 29.1792 55.4082 29.0515 57.4168 27.9603C58.4554 27.3798 58.5809 27.345 58.4668 27.6352ZM94.2335 28.5988L95.546 29.3998L94.9183 29.7016C94.5759 29.8526 94.245 29.9919 94.1651 29.9919C94.0053 29.9919 91.8483 28.5988 91.8483 28.4943C91.8597 28.4247 92.7727 27.7978 92.8755 27.7862C92.9097 27.7862 93.526 28.146 94.2335 28.5988ZM70.701 30.3053L71.5683 30.967L71.2374 31.1063C70.4727 31.4198 70.4613 31.4082 69.6739 30.8045C69.2516 30.4794 68.9092 30.1892 68.9092 30.166C68.9092 30.1196 69.6967 29.6668 69.7994 29.6436C69.8108 29.6436 70.2217 29.9454 70.701 30.3053ZM99.6659 32.6735C100.259 33.1263 100.75 33.5326 100.75 33.579C100.75 33.6139 100.419 33.788 100.008 33.9621L99.2779 34.264L98.1024 33.3236L96.9383 32.3833L97.6116 32.0699C97.9883 31.8957 98.3535 31.768 98.4333 31.7913C98.5132 31.8145 99.061 32.2092 99.6659 32.6735ZM73.8737 33.0102C74.2503 33.3352 74.5698 33.6371 74.5926 33.6951C74.6041 33.7416 74.3073 33.9041 73.9307 34.0434L73.2231 34.3104L72.5612 33.6835C72.2074 33.3469 71.9107 33.0218 71.9221 32.9638C71.9449 32.8709 72.8237 32.4646 73.0748 32.4414C73.1433 32.4297 73.5085 32.6968 73.8737 33.0102ZM55.1115 35.8892C54.1643 37.6422 53.4909 38.3735 51.7448 39.5576C51.1171 39.9756 50.5922 40.3006 50.5693 40.2774C50.5465 40.2658 50.8547 39.5228 51.2427 38.6521L51.9617 37.0501L53.6735 36.075C54.6208 35.5409 55.4197 35.1114 55.4653 35.0998C55.4995 35.0998 55.3512 35.4597 55.1115 35.8892ZM77.6854 36.6206C78.1419 37.0617 78.5071 37.4564 78.4729 37.4796C78.4501 37.5145 78.0963 37.6886 77.6854 37.8743C76.8523 38.2574 76.955 38.3039 75.9736 37.1778L75.2774 36.3768L75.8823 36.0866C76.2246 35.9357 76.5784 35.808 76.6697 35.808C76.761 35.808 77.2175 36.1678 77.6854 36.6206ZM39.7389 37.5841C40.2296 38.211 40.5834 38.7682 40.5263 38.8147C40.4807 38.8611 39.8987 39.3022 39.2481 39.8014C38.3351 40.498 38.0384 40.6721 37.9699 40.5444C37.9129 40.4515 37.4792 39.7666 36.9999 39.0004C36.532 38.2458 36.1554 37.6073 36.1782 37.5957C36.2695 37.5029 38.7346 36.3884 38.7916 36.4116C38.8373 36.4232 39.2596 36.9456 39.7389 37.5841ZM105.589 37.5377C106.182 38.0833 106.673 38.5593 106.673 38.5941C106.685 38.6754 105.349 39.5112 105.212 39.5112C105.11 39.5112 102.998 37.3519 102.941 37.201C102.907 37.0849 104.162 36.4929 104.368 36.5277C104.448 36.5393 104.996 36.9921 105.589 37.5377ZM81.1662 40.6141C81.5314 41.032 81.9537 41.5312 82.1021 41.7053L82.376 42.0304L81.6798 42.4135C81.0978 42.7269 80.9608 42.7617 80.8353 42.634C80.1734 41.9027 79.0549 40.5328 79.0892 40.498C79.1462 40.4399 80.356 39.8711 80.4358 39.8711C80.4701 39.8595 80.7896 40.1961 81.1662 40.6141ZM43.1056 41.2874C43.6077 41.7633 44.03 42.0652 44.3609 42.1581C44.6348 42.2509 44.8289 42.3322 44.806 42.3554C44.4865 42.6688 42.4665 44.2709 42.4094 44.2709C42.3523 44.2709 41.9529 44.1316 41.4964 43.9458C40.7432 43.6556 39.853 42.9939 39.7845 42.6921C39.7617 42.5876 42.1241 40.5792 42.3067 40.556C42.3295 40.556 42.6947 40.8811 43.1056 41.2874ZM111.809 45.0022L110.862 45.4434L109.629 44.1896L108.385 42.9359L109.275 42.5179L110.165 42.1L111.455 43.3306L112.756 44.5611L111.809 45.0022ZM85.8568 46.5578C86.3932 47.2428 86.8268 47.8348 86.8268 47.8813C86.8268 47.9625 85.2519 48.6823 85.0579 48.6823C84.9209 48.6823 83.1178 46.256 83.1977 46.1864C83.2319 46.1515 84.8068 45.3273 84.8639 45.3157C84.8753 45.3157 85.3204 45.8729 85.8568 46.5578ZM90.4218 52.8499C91.0266 53.6393 91.4831 54.3242 91.4261 54.3707C91.3804 54.4171 90.8669 54.6145 90.3076 54.8002L89.2691 55.1485L88.2648 53.7206C87.717 52.9312 87.2605 52.2578 87.2491 52.1998C87.2263 52.1069 88.9952 51.3524 89.1778 51.3872C89.2577 51.3988 89.8055 52.0605 90.4218 52.8499Z" fill="#DA38F3"/>
<path d="M31.83 38.6638C31.6816 38.9772 31.2936 39.6505 30.9512 40.1845C30.6088 40.7186 30.1409 41.5312 29.9241 41.9839C29.3763 43.0636 28.7372 44.12 27.9155 45.2344C27.5503 45.7336 27.2535 46.1748 27.2535 46.2096C27.2535 46.2328 27.653 46.0471 28.1437 45.7801C29.9583 44.7701 31.6702 43.2377 32.9826 41.4499C33.3478 40.9507 33.6445 40.4864 33.6445 40.4283C33.6445 40.3006 32.2408 38.1298 32.1495 38.1181C32.1153 38.1181 31.9783 38.3619 31.83 38.6638Z" fill="#DA38F3"/>
<path d="M1.11899 45.3157L0.845093 45.3854L1.09617 45.5711L1.35866 45.7452L1.10758 45.8149C0.856505 45.8845 0.856505 46.1516 1.09617 46.198C1.17606 46.2096 1.18747 46.198 1.11899 46.1632C0.902155 46.0587 1.00487 45.8962 1.29018 45.8962C1.5869 45.8962 1.6782 46.0703 1.43854 46.1632C1.32442 46.2096 1.32442 46.2328 1.42713 46.2328C1.64397 46.256 1.71244 46.0355 1.55267 45.7801C1.42713 45.5827 1.42713 45.5247 1.55267 45.4434C1.78092 45.3041 1.4956 45.2112 1.11899 45.3157Z" fill="#DA38F3"/>
<path d="M0.947783 46.465C0.856483 46.6275 0.970608 46.8248 1.15321 46.8132C1.25592 46.8132 1.25592 46.79 1.15321 46.7436C0.902133 46.6507 0.993433 46.4766 1.29016 46.4766C1.57547 46.4766 1.67818 46.6391 1.46134 46.7436C1.39287 46.7784 1.40428 46.79 1.48417 46.7784C1.56406 46.7552 1.63253 46.6739 1.63253 46.5811C1.63253 46.3837 1.06191 46.2908 0.947783 46.465Z" fill="#DA38F3"/>
<path d="M0.970648 47.0222C0.810873 47.1732 0.902173 47.4053 1.11901 47.4053C1.24455 47.4053 1.34726 47.3473 1.34726 47.2776C1.34726 47.1848 1.40432 47.1848 1.51845 47.2892C1.7467 47.475 1.73529 47.3589 1.50704 47.1267C1.32444 46.9294 1.09619 46.8829 0.970648 47.0222ZM1.23314 47.1732C1.23314 47.2312 1.18749 47.2892 1.11901 47.2892C1.06195 47.2892 1.00489 47.2312 1.00489 47.1732C1.00489 47.1035 1.06195 47.0571 1.11901 47.0571C1.18749 47.0571 1.23314 47.1035 1.23314 47.1732Z" fill="#DA38F3"/>
<path d="M1.27877 47.6839C1.24453 47.7884 1.16465 47.8697 1.09617 47.8697C1.03911 47.8697 1.0277 47.8116 1.06193 47.7536C1.09617 47.6839 1.07335 47.6375 1.01628 47.6375C0.94781 47.6375 0.890747 47.7188 0.890747 47.8116C0.890747 47.9393 1.01628 47.9858 1.3016 47.9858C1.62115 47.9858 1.70103 47.9393 1.6668 47.7884C1.62115 47.533 1.35866 47.4634 1.27877 47.6839ZM1.5755 47.7536C1.5755 47.8116 1.52985 47.8697 1.46137 47.8697C1.40431 47.8697 1.34725 47.8116 1.34725 47.7536C1.34725 47.6839 1.40431 47.6375 1.46137 47.6375C1.52985 47.6375 1.5755 47.6839 1.5755 47.7536Z" fill="#DA38F3"/>
<path d="M0.947906 48.218C0.856606 48.3689 0.982143 48.5662 1.15333 48.5546C1.25604 48.5546 1.25604 48.5314 1.15333 48.485C0.925081 48.3921 0.982143 48.2412 1.26746 48.1831C1.51853 48.1367 1.51853 48.1367 1.26746 48.1135C1.13051 48.1135 0.982143 48.1483 0.947906 48.218Z" fill="#DA38F3"/>
<path d="M1.48421 48.4037C1.40432 48.4966 1.39291 48.5662 1.44997 48.5662C1.5641 48.5662 1.73528 48.3457 1.67822 48.276C1.6554 48.2644 1.5641 48.3108 1.48421 48.4037Z" fill="#DA38F3"/>
<path d="M1.27877 48.8448C1.24453 48.9493 1.16465 49.0306 1.09617 49.0306C1.03911 49.0306 1.0277 48.9725 1.06193 48.9145C1.09617 48.8448 1.07335 48.7984 1.01628 48.7984C0.94781 48.7984 0.890747 48.8797 0.890747 48.9725C0.890747 49.1002 1.01628 49.1467 1.3016 49.1467C1.62115 49.1467 1.70103 49.1002 1.6668 48.9493C1.62115 48.6939 1.35866 48.6243 1.27877 48.8448ZM1.5755 48.9145C1.5755 48.9725 1.52985 49.0306 1.46137 49.0306C1.40431 49.0306 1.34725 48.9725 1.34725 48.9145C1.34725 48.8448 1.40431 48.7984 1.46137 48.7984C1.52985 48.7984 1.5755 48.8448 1.5755 48.9145Z" fill="#DA38F3"/>
<path d="M1.09624 49.4601C1.23319 49.4833 1.43861 49.4833 1.55274 49.4601C1.65545 49.4252 1.54132 49.402 1.29025 49.4136C1.03917 49.4136 0.947874 49.4368 1.09624 49.4601Z" fill="#DA38F3"/>
<path d="M1.09624 49.8083C1.23319 49.8315 1.43861 49.8315 1.55274 49.8083C1.65545 49.7735 1.54132 49.7503 1.29025 49.7619C1.03917 49.7619 0.947874 49.7851 1.09624 49.8083Z" fill="#DA38F3"/>
<path d="M1.11902 50.2263C1.11902 50.4353 1.14184 50.4469 1.23314 50.3076C1.30162 50.1915 1.34727 50.1799 1.34727 50.2727C1.34727 50.354 1.39292 50.4236 1.46139 50.4236C1.62117 50.4236 1.47281 50.1102 1.27879 50.0289C1.17608 49.9825 1.11902 50.0522 1.11902 50.2263Z" fill="#DA38F3"/>
<path d="M1.15333 50.8532C1.25604 50.8764 1.41582 50.8764 1.4957 50.8532C1.56418 50.8184 1.48429 50.7951 1.29028 50.7951C1.10768 50.7951 1.0392 50.8184 1.15333 50.8532Z" fill="#DA38F3"/>
<path d="M1.47283 51.3988C1.39294 51.4916 1.18751 51.5961 1.02774 51.6193C0.833726 51.6426 0.913614 51.6774 1.23316 51.6774C1.56413 51.689 1.68966 51.6658 1.58695 51.5961C1.46141 51.5149 1.46141 51.4916 1.58695 51.4452C1.67825 51.4104 1.71249 51.3523 1.67825 51.3059C1.64401 51.2595 1.5413 51.3059 1.47283 51.3988Z" fill="#DA38F3"/>
<path d="M1.11902 51.898C1.11902 51.9676 1.17608 52.0721 1.23314 52.1069C1.32444 52.165 1.31303 52.2346 1.22173 52.3507C1.10761 52.49 1.11902 52.5481 1.22173 52.6642C1.33586 52.7687 1.34727 52.757 1.29021 52.5945C1.23314 52.4552 1.26738 52.3972 1.40433 52.3972C1.54128 52.3972 1.57552 52.4552 1.51846 52.5945C1.46139 52.757 1.47281 52.7687 1.58693 52.6642C1.68964 52.5481 1.70106 52.49 1.58693 52.3507C1.49563 52.2346 1.48422 52.165 1.57552 52.1069C1.63258 52.0721 1.68964 51.9792 1.68964 51.898C1.68964 51.8283 1.62117 51.8748 1.52987 51.9909C1.38151 52.1998 1.38151 52.1998 1.25597 51.9792C1.18749 51.8632 1.11902 51.8167 1.11902 51.898Z" fill="#DA38F3"/>
<path d="M1.05065 52.966C1.02782 52.9892 1.03924 53.0473 1.06206 53.0937C1.11912 53.1982 1.68975 53.1053 1.68975 52.9892C1.68975 52.9196 1.13054 52.8847 1.05065 52.966Z" fill="#DA38F3"/>
<path d="M0.890747 53.4652C0.890747 53.7089 1.3016 53.7554 1.38148 53.5232C1.42713 53.4187 1.47278 53.4303 1.56408 53.558C1.6668 53.7089 1.68962 53.7089 1.68962 53.5232C1.68962 53.291 1.46137 53.2562 1.25595 53.4652C1.14182 53.5812 1.08476 53.5812 1.00487 53.4419C0.913572 53.291 0.890747 53.3026 0.890747 53.4652Z" fill="#DA38F3"/>
<path d="M1.11909 54.2314C1.11909 54.2778 1.16474 54.3707 1.2218 54.4287C1.34734 54.5564 1.15333 54.8815 0.890839 54.986C0.799539 55.0208 0.936489 55.0556 1.21039 55.0556C1.70113 55.0672 1.82666 54.9047 1.56418 54.6377C1.47288 54.5448 1.47288 54.4868 1.56418 54.4404C1.63265 54.3939 1.68971 54.2894 1.68971 54.2198C1.68971 54.1385 1.64406 54.1501 1.57559 54.2546C1.50711 54.3707 1.46146 54.3823 1.46146 54.2778C1.46146 54.2082 1.38158 54.1385 1.29028 54.1385C1.19898 54.1385 1.11909 54.185 1.11909 54.2314ZM1.57559 54.8351C1.57559 54.8931 1.4957 54.9511 1.4044 54.9511C1.3131 54.9511 1.23321 54.8931 1.23321 54.8351C1.23321 54.7654 1.3131 54.719 1.4044 54.719C1.4957 54.719 1.57559 54.7654 1.57559 54.8351Z" fill="#DA38F3"/>
<path d="M1.16466 55.311C1.13042 55.3807 1.15324 55.4967 1.22172 55.5664C1.32443 55.6709 1.34726 55.6593 1.29019 55.4967C1.23313 55.3574 1.26737 55.2994 1.40432 55.2994C1.54127 55.2994 1.57551 55.3574 1.51844 55.4967C1.46138 55.6593 1.48421 55.6709 1.58692 55.5664C1.73528 55.4155 1.63257 55.1833 1.40432 55.1833C1.31302 55.1833 1.21031 55.2413 1.16466 55.311Z" fill="#DA38F3"/>
<path d="M0.890771 55.845C0.982071 55.8914 1.13043 55.9959 1.21032 56.1004C1.33586 56.2629 1.33586 56.2629 1.2788 56.0772C1.23315 55.9379 1.26738 55.8798 1.40433 55.8798C1.54128 55.8798 1.57552 55.9379 1.51846 56.0772C1.4614 56.2397 1.48422 56.2513 1.58693 56.1468C1.79236 55.9379 1.59835 55.7637 1.14185 55.7754C0.913596 55.7754 0.799471 55.8102 0.890771 55.845Z" fill="#DA38F3"/>
<path d="M1.46141 56.4371C1.37011 56.4835 1.27881 56.6112 1.27881 56.7157C1.25599 57.0175 1.38152 56.9711 1.5413 56.6344C1.60977 56.4719 1.65542 56.3442 1.65542 56.3558C1.64401 56.3558 1.55271 56.3906 1.46141 56.4371Z" fill="#DA38F3"/>
<path d="M0.890747 56.6925C0.890747 56.7505 0.94781 56.8086 1.00487 56.8086C1.07335 56.8086 1.119 56.7505 1.119 56.6925C1.119 56.6229 1.07335 56.5764 1.00487 56.5764C0.94781 56.5764 0.890747 56.6229 0.890747 56.6925Z" fill="#DA38F3"/>
</g>
<defs>
<clipPath id="clip0_8_109">
<rect width="56" height="57" fill="white"/>
</clipPath>
</defs>
</svg>
